<svg width="24" height="14" viewBox="0 0 24 14" xmlns="http://www.w3.org/2000/svg" xmlns:xlink="http://www.w3.org/1999/xlink"><g transform="rotate(90 12.5 9.5)" fill="none" fill-rule="evenodd" opacity=".9"><mask id="b" fill="currentColor"><path fill="currentColor" fill-rule="nonzero" d="M12.879 10l-8.94-8.94a1.5 1.5 0 1 1 2.122-2.12l10 10a1.5 1.5 0 0 1 0 2.12l-10 10a1.5 1.5 0 0 1-2.122-2.12L12.88 10z"/></mask><path fill="currentColor" fill-rule="nonzero" d="M12.879 10l-8.94-8.94a1.5 1.5 0 1 1 2.122-2.12l10 10a1.5 1.5 0 0 1 0 2.12l-10 10a1.5 1.5 0 0 1-2.122-2.12L12.88 10z"/><g mask="url(#b)" fill="currentColor" fill-rule="nonzero"><path d="M-1-2h24v24H-1z"/></g></g></svg>
