<svg width="17" height="24" viewBox="0 0 17 24" xmlns="http://www.w3.org/2000/svg" xmlns:xlink="http://www.w3.org/1999/xlink"><path fill="currentColor" d="M4.275 19l-1.221 3.605c-.231.792-1.122 1.393-1.716 1.393C.315 23.998 0 23.199 0 22.176c0-.165.033-.495.066-.627L6.501 1.98C6.864.858 6.881 0 8.169 0c1.287 0 1.358.825 1.754 1.98l6.435 19.569c.066.132.099.462.099.627 0 1.023.125 1.587-.94 1.822-1.064.235-1.584-.943-2.013-2.13l-1.056-2.847L4.275 19zM8.169 5.445c-.825 3.498-2.24 7.252-3.23 10.585h6.249c-1.023-3.333-2.326-7.153-3.02-10.585z"/></svg>
