<svg width="17" height="24" viewBox="0 0 17 24" xmlns="http://www.w3.org/2000/svg" xmlns:xlink="http://www.w3.org/1999/xlink"><path fill="currentColor" transform="translate(0 -.574)" fill-rule="evenodd" d="M1.287 12.591h1.684V2.554c0-1.056.957-1.98 2.079-1.98H9.07c5.841 0 7.92 3.63 7.92 7.557 0 4.917-3.3 7.44-8.382 7.44H5.986v2.034h5.131c.66 0 1.287.528 1.287 1.22 0 .694-.56 1.728-1.287 1.728h-5.13v2.124c0 .693-.498 1.75-1.455 1.75-.957 0-1.561-.793-1.561-1.75v-2.124H1.287c-.726 0-1.287-.706-1.287-1.4 0-.692.627-1.548 1.287-1.548h1.684v-2.033H1.287c-.726 0-1.287-.826-1.287-1.52 0-.692.627-1.46 1.287-1.46zm4.7-9.033v9.001H9.07c2.805 0 4.963-1.656 4.963-4.461 0-2.046-1.465-4.54-4.963-4.54H5.986z"/></svg>
